<svg width="20" height="20" viewBox="0 0 20 20" fill="none" xmlns="http://www.w3.org/2000/svg">
<path d="M17.0513 2.90625C15.18 1.03125 12.6913 0 10.04 0C4.57877 0 0.133769 4.445 0.133769 9.91C0.133769 11.6562 0.591269 13.3637 1.45752 14.8637L0.0512695 20L5.30502 18.6213C6.75377 19.41 8.38377 19.8287 10.0388 19.8287H10.0425C15.5038 19.8287 19.9525 15.3838 19.9525 9.91875C19.9525 7.27 18.9213 4.7825 17.05 2.9075L17.0513 2.90625ZM10.0425 18.1562C8.56251 18.1562 7.11252 17.7575 5.84752 17.0075L5.54627 16.8275L2.42877 17.6437L3.26127 14.605L3.06627 14.2925C2.23752 12.9837 1.80502 11.4687 1.80502 9.91C1.80502 5.3675 5.50001 1.67125 10.0475 1.67125C12.2463 1.67125 14.3175 2.53125 15.8713 4.085C17.4263 5.64375 18.2813 7.71 18.2813 9.9125C18.2775 14.4587 14.5825 18.155 10.0425 18.155V18.1562ZM14.5588 11.985C14.3125 11.86 13.0938 11.2625 12.8675 11.18C12.6413 11.0975 12.4763 11.055 12.3088 11.305C12.145 11.5512 11.6688 12.11 11.5238 12.2775C11.3788 12.4412 11.235 12.465 10.9888 12.34C10.7425 12.215 9.94127 11.9537 8.99627 11.11C8.26127 10.4537 7.76252 9.64125 7.61752 9.395C7.47252 9.14875 7.60127 9.0125 7.72752 8.89125C7.84127 8.78125 7.97377 8.6025 8.09877 8.4575C8.22377 8.3125 8.26252 8.21125 8.34502 8.04375C8.42752 7.88 8.38752 7.735 8.32502 7.61C8.26252 7.485 7.76627 6.26625 7.56377 5.77C7.36502 5.285 7.15752 5.3525 7.00502 5.34375C6.86002 5.33625 6.69627 5.33625 6.53252 5.33625C6.36877 5.33625 6.09877 5.39875 5.87252 5.645C5.64627 5.89125 5.00502 6.4925 5.00502 7.71125C5.00502 8.93 5.89127 10.1062 6.01627 10.2737C6.14127 10.4375 7.76252 12.9413 10.2463 14.0125C10.8363 14.2663 11.2975 14.4187 11.6563 14.5362C12.25 14.7237 12.7888 14.6962 13.215 14.6337C13.6913 14.5637 14.68 14.0362 14.8875 13.4575C15.095 12.8787 15.095 12.3837 15.0325 12.2812C14.9738 12.1712 14.81 12.11 14.56 11.9837L14.5588 11.985Z" fill="#28A745"/>
</svg>
